<mxfile host="app.diagrams.net" agent="Mozilla/5.0 (Windows NT 10.0; Win64; x64; rv:137.0) Gecko/20100101 Firefox/137.0" version="26.2.10">
  <diagram id="C5RBs43oDa-KdzZeNtuy" name="Page-1">
    <mxGraphModel dx="1428" dy="751" grid="1" gridSize="10" guides="1" tooltips="1" connect="1" arrows="1" fold="1" page="1" pageScale="1" pageWidth="827" pageHeight="1169" math="0" shadow="0">
      <root>
        <mxCell id="WIyWlLk6GJQsqaUBKTNV-0" />
        <mxCell id="WIyWlLk6GJQsqaUBKTNV-1" parent="WIyWlLk6GJQsqaUBKTNV-0" />
        <mxCell id="_mSdX5-yHhpUyyX5TuZ2-0" value="&lt;h1&gt;Input vector&lt;/h1&gt;" style="rounded=0;whiteSpace=wrap;html=1;rotation=0;horizontal=0;" vertex="1" parent="WIyWlLk6GJQsqaUBKTNV-1">
          <mxGeometry x="90" y="180" width="50" height="370" as="geometry" />
        </mxCell>
        <mxCell id="_mSdX5-yHhpUyyX5TuZ2-1" value="&lt;h1&gt;Attenttion module&lt;/h1&gt;" style="rounded=1;whiteSpace=wrap;html=1;horizontal=0;" vertex="1" parent="WIyWlLk6GJQsqaUBKTNV-1">
          <mxGeometry x="220" y="210" width="120" height="290" as="geometry" />
        </mxCell>
        <mxCell id="_mSdX5-yHhpUyyX5TuZ2-3" value="" style="endArrow=classic;html=1;rounded=0;exitX=1;exitY=0.5;exitDx=0;exitDy=0;" edge="1" parent="WIyWlLk6GJQsqaUBKTNV-1" source="_mSdX5-yHhpUyyX5TuZ2-0">
          <mxGeometry relative="1" as="geometry">
            <mxPoint x="120" y="364.5" as="sourcePoint" />
            <mxPoint x="220" y="364.5" as="targetPoint" />
          </mxGeometry>
        </mxCell>
        <mxCell id="_mSdX5-yHhpUyyX5TuZ2-2" value="&lt;h1&gt;Learning Module&lt;/h1&gt;" style="rounded=1;whiteSpace=wrap;html=1;horizontal=0;" vertex="1" parent="WIyWlLk6GJQsqaUBKTNV-1">
          <mxGeometry x="570" y="210" width="120" height="290" as="geometry" />
        </mxCell>
        <mxCell id="_mSdX5-yHhpUyyX5TuZ2-10" value="" style="curved=0;endArrow=classic;html=1;rounded=0;" edge="1" parent="WIyWlLk6GJQsqaUBKTNV-1" target="_mSdX5-yHhpUyyX5TuZ2-13">
          <mxGeometry width="50" height="50" relative="1" as="geometry">
            <mxPoint x="180" y="360" as="sourcePoint" />
            <mxPoint x="470" y="340" as="targetPoint" />
            <Array as="points">
              <mxPoint x="180" y="160" />
              <mxPoint x="500" y="160" />
            </Array>
          </mxGeometry>
        </mxCell>
        <mxCell id="_mSdX5-yHhpUyyX5TuZ2-12" value="&lt;h1&gt;Attention weight&lt;/h1&gt;" style="rounded=0;whiteSpace=wrap;html=1;rotation=0;horizontal=0;" vertex="1" parent="WIyWlLk6GJQsqaUBKTNV-1">
          <mxGeometry x="380" y="180" width="50" height="370" as="geometry" />
        </mxCell>
        <mxCell id="_mSdX5-yHhpUyyX5TuZ2-13" value="&lt;h1&gt;X&lt;/h1&gt;" style="ellipse;whiteSpace=wrap;html=1;aspect=fixed;" vertex="1" parent="WIyWlLk6GJQsqaUBKTNV-1">
          <mxGeometry x="480" y="347.5" width="35" height="35" as="geometry" />
        </mxCell>
        <mxCell id="_mSdX5-yHhpUyyX5TuZ2-14" value="" style="endArrow=classic;html=1;rounded=0;entryX=0;entryY=0.5;entryDx=0;entryDy=0;" edge="1" parent="WIyWlLk6GJQsqaUBKTNV-1" target="_mSdX5-yHhpUyyX5TuZ2-12">
          <mxGeometry relative="1" as="geometry">
            <mxPoint x="340" y="364.5" as="sourcePoint" />
            <mxPoint x="380" y="360" as="targetPoint" />
          </mxGeometry>
        </mxCell>
        <mxCell id="_mSdX5-yHhpUyyX5TuZ2-16" value="" style="endArrow=classic;html=1;rounded=0;entryX=0;entryY=0.5;entryDx=0;entryDy=0;exitX=1;exitY=0.5;exitDx=0;exitDy=0;" edge="1" parent="WIyWlLk6GJQsqaUBKTNV-1" source="_mSdX5-yHhpUyyX5TuZ2-12" target="_mSdX5-yHhpUyyX5TuZ2-13">
          <mxGeometry relative="1" as="geometry">
            <mxPoint x="360" y="410" as="sourcePoint" />
            <mxPoint x="460" y="410" as="targetPoint" />
          </mxGeometry>
        </mxCell>
        <mxCell id="_mSdX5-yHhpUyyX5TuZ2-19" value="" style="endArrow=classic;html=1;rounded=0;exitX=1;exitY=0.5;exitDx=0;exitDy=0;entryX=-0.017;entryY=0.538;entryDx=0;entryDy=0;entryPerimeter=0;" edge="1" parent="WIyWlLk6GJQsqaUBKTNV-1" source="_mSdX5-yHhpUyyX5TuZ2-13" target="_mSdX5-yHhpUyyX5TuZ2-2">
          <mxGeometry relative="1" as="geometry">
            <mxPoint x="480" y="520" as="sourcePoint" />
            <mxPoint x="560" y="520" as="targetPoint" />
          </mxGeometry>
        </mxCell>
        <mxCell id="_mSdX5-yHhpUyyX5TuZ2-21" value="&lt;h4&gt;Prediction&lt;/h4&gt;" style="rhombus;whiteSpace=wrap;html=1;" vertex="1" parent="WIyWlLk6GJQsqaUBKTNV-1">
          <mxGeometry x="730" y="325" width="80" height="80" as="geometry" />
        </mxCell>
        <mxCell id="_mSdX5-yHhpUyyX5TuZ2-22" value="" style="endArrow=classic;html=1;rounded=0;exitX=1.008;exitY=0.528;exitDx=0;exitDy=0;exitPerimeter=0;entryX=0;entryY=0.5;entryDx=0;entryDy=0;" edge="1" parent="WIyWlLk6GJQsqaUBKTNV-1" source="_mSdX5-yHhpUyyX5TuZ2-2" target="_mSdX5-yHhpUyyX5TuZ2-21">
          <mxGeometry relative="1" as="geometry">
            <mxPoint x="360" y="410" as="sourcePoint" />
            <mxPoint x="730" y="350" as="targetPoint" />
          </mxGeometry>
        </mxCell>
      </root>
    </mxGraphModel>
  </diagram>
</mxfile>
